<svg id="be9c09ef-ded5-48b0-b140-3e81eebe0453" data-name="1" xmlns="http://www.w3.org/2000/svg" viewBox="0 0 800 800"><title>19-09-11-1-100days-tobias</title><path d="M313.87,544.65V350.78H193.5v-32.6q86-24,129-84.06T384.37,66h36.11V275.29h186v75.49h-186V573l0,17.09C373.58,602.44,323.68,670.92,314,734h0V614.57Z"/><circle cx="400" cy="400" r="360" fill="none" stroke="#000" stroke-miterlimit="10" stroke-width="12"/><path d="M400,24A376.11,376.11,0,0,1,546.35,746.46,376.1,376.1,0,0,1,253.65,53.54,373.63,373.63,0,0,1,400,24m0-24C179.09,0,0,179.09,0,400S179.09,800,400,800,800,620.91,800,400,620.91,0,400,0Z"/></svg>